# xmcd
#
# Track frame offsets:
#  150
#  22300
#  39330
#  56487
#  75090
#  96632
#  114647
#  144360
#  164762
#  182995
#  206247
#  223420
#
# Disc length: 3232 seconds
#
# Revision: 1
# Processed by: cddbd v1.5.1PL2 Copyright (c) Steve Scherf et al.
# Submitted via: Collectorz.com_Music_Collector 6.11
#
DISCID=b70c9e0c
DTITLE=Larry Stewart - Learning To Breathe
DYEAR=1999
DGENRE=
TTITLE0=Take This Heart
TTITLE1=Anything Else But You
TTITLE2=Learning To Breathe Again
TTITLE3=In My Dreams Tonight
TTITLE4=Prodigal Daughter
TTITLE5=Still In Love
TTITLE6=Fantasy
TTITLE7=Gotta Tell Somebody
TTITLE8=Compared To Goodbye
TTITLE9=Takin' My Time
TTITLE10=A Reason To Believe In
TTITLE11=Summer In The City
EXTD=
EXTT0=
EXTT1=
EXTT2=
EXTT3=
EXTT4=
EXTT5=
EXTT6=
EXTT7=
EXTT8=
EXTT9=
EXTT10=
EXTT11=
PLAYORDER=
